<?xml version="1.0" encoding="UTF-8" standalone="no"?>
<!-- Generator: Adobe Illustrator 16.0.0, SVG Export Plug-In . SVG Version: 6.00 Build 0)  -->

<svg
   xmlns:dc="http://purl.org/dc/elements/1.1/"
   xmlns:cc="http://creativecommons.org/ns#"
   xmlns:rdf="http://www.w3.org/1999/02/22-rdf-syntax-ns#"
   xmlns:svg="http://www.w3.org/2000/svg"
   xmlns="http://www.w3.org/2000/svg"
   xmlns:sodipodi="http://sodipodi.sourceforge.net/DTD/sodipodi-0.dtd"
   xmlns:inkscape="http://www.inkscape.org/namespaces/inkscape"
   version="1.1"
   id="Capa_1"
   x="0px"
   y="0px"
   width="41.755501"
   height="41.755001"
   viewBox="0 0 41.7555 41.755001"
   xml:space="preserve"
   sodipodi:docname="close-cross.svg"
   inkscape:version="0.92.5 (2060ec1f9f, 2020-04-08)"><metadata
   id="metadata41"><rdf:RDF><cc:Work
       rdf:about=""><dc:format>image/svg+xml</dc:format><dc:type
         rdf:resource="http://purl.org/dc/dcmitype/StillImage" /><dc:title></dc:title></cc:Work></rdf:RDF></metadata><defs
   id="defs39" /><sodipodi:namedview
   pagecolor="#ffffff"
   bordercolor="#666666"
   borderopacity="1"
   objecttolerance="10"
   gridtolerance="10"
   guidetolerance="10"
   inkscape:pageopacity="0"
   inkscape:pageshadow="2"
   inkscape:window-width="760"
   inkscape:window-height="480"
   id="namedview37"
   showgrid="false"
   fit-margin-top="0"
   fit-margin-left="0"
   fit-margin-right="0"
   fit-margin-bottom="0"
   inkscape:zoom="5.6518823"
   inkscape:cx="20.87775"
   inkscape:cy="20.878"
   inkscape:window-x="677"
   inkscape:window-y="438"
   inkscape:window-maximized="0"
   inkscape:current-layer="Capa_1" />
<g
   id="g4"
   transform="translate(-2.5e-4,-10e-4)"
   style="fill:#00677f;fill-opacity:1">
	<path
   d="M 27.948,20.878 40.291,8.536 c 1.953,-1.953 1.953,-5.119 0,-7.071 -1.951,-1.952 -5.119,-1.952 -7.07,0 L 20.878,13.809 8.535,1.465 c -1.951,-1.952 -5.119,-1.952 -7.07,0 -1.953,1.953 -1.953,5.119 0,7.071 L 13.807,20.878 1.465,33.22 c -1.953,1.953 -1.953,5.119 0,7.071 0.975,0.977 2.256,1.464 3.535,1.464 1.278,0 2.56,-0.487 3.535,-1.464 L 20.878,27.949 33.221,40.292 c 0.976,0.977 2.256,1.464 3.535,1.464 1.279,0 2.56,-0.487 3.535,-1.464 1.953,-1.953 1.953,-5.119 0,-7.071 z"
   id="path2"
   inkscape:connector-curvature="0"
   style="fill:#00677f;fill-opacity:1" />
</g>
<g
   id="g6"
   transform="translate(-2.5e-4,-10e-4)">
</g>
<g
   id="g8"
   transform="translate(-2.5e-4,-10e-4)">
</g>
<g
   id="g10"
   transform="translate(-2.5e-4,-10e-4)">
</g>
<g
   id="g12"
   transform="translate(-2.5e-4,-10e-4)">
</g>
<g
   id="g14"
   transform="translate(-2.5e-4,-10e-4)">
</g>
<g
   id="g16"
   transform="translate(-2.5e-4,-10e-4)">
</g>
<g
   id="g18"
   transform="translate(-2.5e-4,-10e-4)">
</g>
<g
   id="g20"
   transform="translate(-2.5e-4,-10e-4)">
</g>
<g
   id="g22"
   transform="translate(-2.5e-4,-10e-4)">
</g>
<g
   id="g24"
   transform="translate(-2.5e-4,-10e-4)">
</g>
<g
   id="g26"
   transform="translate(-2.5e-4,-10e-4)">
</g>
<g
   id="g28"
   transform="translate(-2.5e-4,-10e-4)">
</g>
<g
   id="g30"
   transform="translate(-2.5e-4,-10e-4)">
</g>
<g
   id="g32"
   transform="translate(-2.5e-4,-10e-4)">
</g>
<g
   id="g34"
   transform="translate(-2.5e-4,-10e-4)">
</g>
</svg>