<?xml version="1.0" encoding="UTF-8" standalone="no"?>
<svg
   xmlns:dc="http://purl.org/dc/elements/1.1/"
   xmlns:cc="http://creativecommons.org/ns#"
   xmlns:rdf="http://www.w3.org/1999/02/22-rdf-syntax-ns#"
   xmlns:svg="http://www.w3.org/2000/svg"
   xmlns="http://www.w3.org/2000/svg"
   xmlns:sodipodi="http://sodipodi.sourceforge.net/DTD/sodipodi-0.dtd"
   xmlns:inkscape="http://www.inkscape.org/namespaces/inkscape"
   height="499.45721"
   viewBox="0 0 499.52869 499.45721"
   width="499.52869"
   version="1.1"
   id="svg10"
   sodipodi:docname="buscar_localizacion.svg"
   inkscape:version="0.92.5 (2060ec1f9f, 2020-04-08)">
  <metadata
     id="metadata16">
    <rdf:RDF>
      <cc:Work
         rdf:about="">
        <dc:format>image/svg+xml</dc:format>
        <dc:type
           rdf:resource="http://purl.org/dc/dcmitype/StillImage" />
        <dc:title></dc:title>
      </cc:Work>
    </rdf:RDF>
  </metadata>
  <defs
     id="defs14" />
  <sodipodi:namedview
     pagecolor="#ffffff"
     bordercolor="#666666"
     borderopacity="1"
     objecttolerance="10"
     gridtolerance="10"
     guidetolerance="10"
     inkscape:pageopacity="0"
     inkscape:pageshadow="2"
     inkscape:window-width="1920"
     inkscape:window-height="1137"
     id="namedview12"
     showgrid="false"
     fit-margin-top="0"
     fit-margin-left="0"
     fit-margin-right="0"
     fit-margin-bottom="0"
     inkscape:zoom="0.4609375"
     inkscape:cx="253"
     inkscape:cy="246.4572"
     inkscape:window-x="-8"
     inkscape:window-y="-8"
     inkscape:window-maximized="1"
     inkscape:current-layer="svg10" />
  <g
     id="_02-search"
     data-name="02-search"
     style="fill:#00677f;fill-opacity:1"
     transform="translate(-3,-3)">
    <g
       id="glyph"
       style="fill:#00677f;fill-opacity:1">
      <path
         d="m 502.52,447.813 a 24.1,24.1 0 0 0 -8.019,-17.227 L 356.423,307.478 a 202.683,202.683 0 0 1 -48.945,48.945 L 430.586,494.5 c 8.716,10.185 25.595,10.673 34.885,1 L 495.5,465.471 a 24.1,24.1 0 0 0 7.02,-17.658 z"
         id="path2"
         style="fill:#00677f;fill-opacity:1"
         inkscape:connector-curvature="0" />
      <path
         d="M 381,192 C 381,87.785 296.215,3 192,3 87.785,3 3,87.785 3,192 3,296.215 87.785,381 192,381 296.215,381 381,296.215 381,192 Z M 192,336 C 112.6,336 48,271.4 48,192 48,112.6 112.6,48 192,48 c 79.4,0 144,64.6 144,144 0,79.4 -64.6,144 -144,144 z"
         id="path4"
         style="fill:#00677f;fill-opacity:1"
         inkscape:connector-curvature="0" />
      <path
         d="m 192,92 a 84.1,84.1 0 0 0 -84,84 c 0,22.962 13.148,49.214 39.081,78.027 a 323.174,323.174 0 0 0 37.552,35.445 12,12 0 0 0 14.734,0 323.174,323.174 0 0 0 37.552,-35.445 C 262.852,225.214 276,198.962 276,176 A 84.1,84.1 0 0 0 192,92 Z m 0,124 a 40,40 0 1 1 40,-40 40.045,40.045 0 0 1 -40,40 z"
         id="path6"
         style="fill:#00677f;fill-opacity:1"
         inkscape:connector-curvature="0" />
    </g>
  </g>
</svg>
