<svg xmlns="http://www.w3.org/2000/svg" width="50" height="50"><style><![CDATA[.A{fill:#f4f4f4}.A,.B,.C{fill-rule:evenodd}.B,.C{fill:#717171;stroke-miterlimit:10;stroke-width:2.07px}]]></style><g stroke-width="0"><g stroke="none"><path d="M47.347 25.114a22.135 22.174 0 0 1-22.131 22.174A22.135 22.174 0 0 1 3.078 25.122 22.135 22.174 0 0 1 25.202 2.94 22.135 22.174 0 0 1 47.347 25.1l-22.135.014z" opacity="1" fill-opacity=".118"/><g stroke="none"><path class="A" d="M29.224 18.6H14.578L21.9 31.33l7.323-12.72zm-9.227 17.384l2.392 6.287 2.802-15.306-5.195 9.02zm-.283-18h10.028l4.1-6.65-14.14 6.65zm13.3-6.884l-5.927-2.8-4.003 7.462 9.93-4.67zm-4.337 20.203l-2.85-4.563-1.943 10.557 4.794-5.994z"/><path d="M24.176 24.732" class="B"/><path d="M24.156 24.928" class="C"/></g></g><g transform="matrix(1.465903 0 0 1.470214 -48.270786 -48.502457)" opacity="1" stroke="#f4f4f4" fill="#f4f4f4"><rect height="5" width="2.5" ry=".33" rx=".493" y="33" x="49.25"><animate repeatCount="indefinite" begin="-1.0450000000000002s" dur="1.1s" keyTimes="0;1" values="1;0" attributeName="opacity"/></rect><rect height="5" width="2.5" ry=".33" rx=".493" y="33" x="49.25" transform="matrix(.951057 .309017 -.309017 .951057 17.898024 -13.003676)"><animate repeatCount="indefinite" begin="-0.99s" dur="1.1s" keyTimes="0;1" values="1;0" attributeName="opacity"/></rect><rect height="5" width="2.5" ry=".33" rx=".493" y="33" x="49.25" transform="matrix(.809017 .587785 -.587785 .809017 38.938412 -19.840113)"><animate repeatCount="indefinite" begin="-0.9350000000000002s" dur="1.1s" keyTimes="0;1" values="1;0" attributeName="opacity"/></rect><rect height="5" width="2.5" ry=".33" rx=".493" y="33" x="49.25" transform="matrix(.587785 .809017 -.809017 .587785 61.061588 -19.840113)"><animate repeatCount="indefinite" begin="-0.8800000000000001s" dur="1.1s" keyTimes="0;1" values="1;0" attributeName="opacity"/></rect><rect height="5" width="2.5" ry=".33" rx=".493" y="33" x="49.25" transform="matrix(.309017 .951057 -.951057 .309017 82.101974 -13.003676)"><animate repeatCount="indefinite" begin="-0.825s" dur="1.1s" keyTimes="0;1" values="1;0" attributeName="opacity"/></rect><rect height="5" width="2.5" ry=".33" rx=".493" y="33" x="49.25" transform="matrix(0 1 -1 0 100 0)"><animate repeatCount="indefinite" begin="-0.7700000000000001s" dur="1.1s" keyTimes="0;1" values="1;0" attributeName="opacity"/></rect><rect height="5" width="2.5" ry=".33" rx=".493" y="33" x="49.25" transform="matrix(-.309017 .951057 -.951057 -.309017 113.003677 17.898024)"><animate repeatCount="indefinite" begin="-0.7150000000000001s" dur="1.1s" keyTimes="0;1" values="1;0" attributeName="opacity"/></rect><rect height="5" width="2.5" ry=".33" rx=".493" y="33" x="49.25" transform="matrix(-.587785 .809017 -.809017 -.587785 119.840111 38.938412)"><animate repeatCount="indefinite" begin="-0.66s" dur="1.1s" keyTimes="0;1" values="1;0" attributeName="opacity"/></rect><rect height="5" width="2.5" ry=".33" rx=".493" y="33" x="49.25" transform="matrix(-.809017 .587785 -.587785 -.809017 119.840111 61.061588)"><animate repeatCount="indefinite" begin="-0.6050000000000001s" dur="1.1s" keyTimes="0;1" values="1;0" attributeName="opacity"/></rect><rect height="5" width="2.5" ry=".33" rx=".493" y="33" x="49.25" transform="matrix(-.951057 .309017 -.309017 -.951057 113.003677 82.101974)"><animate repeatCount="indefinite" begin="-0.55s" dur="1.1s" keyTimes="0;1" values="1;0" attributeName="opacity"/></rect><rect height="5" width="2.5" ry=".33" rx=".493" y="33" x="49.25" transform="matrix(-1 0 0 -1 100 100)"><animate repeatCount="indefinite" begin="-0.495s" dur="1.1s" keyTimes="0;1" values="1;0" attributeName="opacity"/></rect><rect height="5" width="2.5" ry=".33" rx=".493" y="33" x="49.25" transform="matrix(-.951057 -.309017 .309017 -.951057 82.101974 113.003677)"><animate repeatCount="indefinite" begin="-0.44000000000000006s" dur="1.1s" keyTimes="0;1" values="1;0" attributeName="opacity"/></rect><rect height="5" width="2.5" ry=".33" rx=".493" y="33" x="49.25" transform="matrix(-.809017 -.587785 .587785 -.809017 61.061588 119.840111)"><animate repeatCount="indefinite" begin="-0.38500000000000006s" dur="1.1s" keyTimes="0;1" values="1;0" attributeName="opacity"/></rect><rect height="5" width="2.5" ry=".33" rx=".493" y="33" x="49.25" transform="matrix(-.587785 -.809017 .809017 -.587785 38.938412 119.840111)"><animate repeatCount="indefinite" begin="-0.33s" dur="1.1s" keyTimes="0;1" values="1;0" attributeName="opacity"/></rect><rect height="5" width="2.5" ry=".33" rx=".493" y="33" x="49.25" transform="matrix(-.309017 -.951057 .951057 -.309017 17.898024 113.003677)"><animate repeatCount="indefinite" begin="-0.275s" dur="1.1s" keyTimes="0;1" values="1;0" attributeName="opacity"/></rect><rect height="5" width="2.5" ry=".33" rx=".493" y="33" x="49.25" transform="matrix(0 -1 1 0 0 100)"><animate repeatCount="indefinite" begin="-0.22000000000000003s" dur="1.1s" keyTimes="0;1" values="1;0" attributeName="opacity"/></rect><rect height="5" width="2.5" ry=".33" rx=".493" y="33" x="49.25" transform="matrix(.309017 -.951057 .951057 .309017 -13.003676 82.101974)"><animate repeatCount="indefinite" begin="-0.165s" dur="1.1s" keyTimes="0;1" values="1;0" attributeName="opacity"/></rect><rect height="5" width="2.5" ry=".33" rx=".493" y="33" x="49.25" transform="matrix(.587785 -.809017 .809017 .587785 -19.840113 61.061588)"><animate repeatCount="indefinite" begin="-0.11000000000000001s" dur="1.1s" keyTimes="0;1" values="1;0" attributeName="opacity"/></rect><rect height="5" width="2.5" ry=".33" rx=".493" y="33" x="49.25" transform="matrix(.809017 -.587785 .587785 .809017 -19.840113 38.938412)"><animate repeatCount="indefinite" begin="-0.05500000000000001s" dur="1.1s" keyTimes="0;1" values="1;0" attributeName="opacity"/></rect><rect height="5" width="2.5" ry=".33" rx=".493" y="33" x="49.25" transform="matrix(.951057 -.309017 .309017 .951057 -13.003676 17.898024)"><animate repeatCount="indefinite" begin="0s" dur="1.1s" keyTimes="0;1" values="1;0" attributeName="opacity"/></rect></g></g></svg>