<svg xmlns="http://www.w3.org/2000/svg" width="24" height="24" viewBox="0 0 24 24">
  <g id="Grupo_1" data-name="Grupo 1" transform="translate(-307 -486)">
    <rect id="Rectángulo_1" data-name="Rectángulo 1" width="24" height="24" transform="translate(307 486)" fill="none"/>
    <path id="check_1" data-name="check 1" d="M89.411-864.023l7.715-7.715-1.532-1.532-6.183,6.183-3.119-3.119-1.532,1.532Zm1.532,5.909a10.657,10.657,0,0,1-4.268-.862,11.053,11.053,0,0,1-3.475-2.339,11.051,11.051,0,0,1-2.339-3.474A10.656,10.656,0,0,1,80-869.057a10.656,10.656,0,0,1,.862-4.268A11.051,11.051,0,0,1,83.2-876.8a11.051,11.051,0,0,1,3.475-2.339A10.656,10.656,0,0,1,90.943-880a10.656,10.656,0,0,1,4.268.862,11.051,11.051,0,0,1,3.475,2.339,11.051,11.051,0,0,1,2.339,3.475,10.656,10.656,0,0,1,.862,4.268,10.656,10.656,0,0,1-.862,4.268,11.051,11.051,0,0,1-2.339,3.474,11.053,11.053,0,0,1-3.475,2.339A10.657,10.657,0,0,1,90.943-858.113Z" transform="translate(228 1367.057)" fill="#575252"/>
  </g>
</svg>
