<?xml version="1.0"?>
<svg xmlns="http://www.w3.org/2000/svg" xmlns:xlink="http://www.w3.org/1999/xlink" version="1.1" id="Capa_1" x="0px" y="0px" viewBox="0 0 384 384" style="enable-background:new 0 0 384 384;" xml:space="preserve" width="512px" height="512px" class=""><g><g>
	<g>
		<path d="M352,128h21.333c5.896,0,10.667-4.771,10.667-10.667V10.667C384,4.771,379.229,0,373.333,0H266.667    C260.771,0,256,4.771,256,10.667V32c0,5.896,4.771,10.667,10.667,10.667h44.5L192,161.833L72.833,42.667h44.5    C123.229,42.667,128,37.896,128,32V10.667C128,4.771,123.229,0,117.333,0H10.667C4.771,0,0,4.771,0,10.667v106.667    C0,123.229,4.771,128,10.667,128H32c5.896,0,10.667-4.771,10.667-10.667v-44.5L161.833,192L42.667,311.167v-44.5    C42.667,260.771,37.896,256,32,256H10.667C4.771,256,0,260.771,0,266.667v106.667C0,379.229,4.771,384,10.667,384h106.667    c5.896,0,10.667-4.771,10.667-10.667V352c0-5.896-4.771-10.667-10.667-10.667h-44.5L192,222.167l119.167,119.167h-44.5    c-5.896,0-10.667,4.771-10.667,10.667v21.333c0,5.896,4.771,10.667,10.667,10.667h106.667c5.896,0,10.667-4.771,10.667-10.667    V266.667c0-5.896-4.771-10.667-10.667-10.667H352c-5.896,0-10.667,4.771-10.667,10.667v44.5L222.167,192L341.333,72.833v44.5    C341.333,123.229,346.104,128,352,128z" data-original="#000000" class="active-path" data-old_color="#000000" fill="#00677F"/>
	</g>
</g></g> </svg>
