<?xml version="1.0" encoding="UTF-8" standalone="no"?>
<!-- Generator: Adobe Illustrator 19.0.0, SVG Export Plug-In . SVG Version: 6.00 Build 0)  -->

<svg
   xmlns:dc="http://purl.org/dc/elements/1.1/"
   xmlns:cc="http://creativecommons.org/ns#"
   xmlns:rdf="http://www.w3.org/1999/02/22-rdf-syntax-ns#"
   xmlns:svg="http://www.w3.org/2000/svg"
   xmlns="http://www.w3.org/2000/svg"
   xmlns:sodipodi="http://sodipodi.sourceforge.net/DTD/sodipodi-0.dtd"
   xmlns:inkscape="http://www.inkscape.org/namespaces/inkscape"
   version="1.1"
   id="Capa_1"
   x="0px"
   y="0px"
   viewBox="0 0 512 512"
   style="enable-background:new 0 0 512 512;"
   xml:space="preserve"
   sodipodi:docname="h_zoomXY_pantalla.svg"
   inkscape:version="0.92.5 (2060ec1f9f, 2020-04-08)"><metadata
   id="metadata67"><rdf:RDF><cc:Work
       rdf:about=""><dc:format>image/svg+xml</dc:format><dc:type
         rdf:resource="http://purl.org/dc/dcmitype/StillImage" /><dc:title></dc:title></cc:Work></rdf:RDF></metadata><defs
   id="defs65" /><sodipodi:namedview
   pagecolor="#ffffff"
   bordercolor="#666666"
   borderopacity="1"
   objecttolerance="10"
   gridtolerance="10"
   guidetolerance="10"
   inkscape:pageopacity="0"
   inkscape:pageshadow="2"
   inkscape:window-width="2560"
   inkscape:window-height="1017"
   id="namedview63"
   showgrid="false"
   inkscape:zoom="0.4609375"
   inkscape:cx="377.13821"
   inkscape:cy="256"
   inkscape:window-x="-8"
   inkscape:window-y="-8"
   inkscape:window-maximized="1"
   inkscape:current-layer="Capa_1" />
<g
   id="g6"
   style="fill:#ffffff;fill-opacity:1">
	<g
   id="g4"
   style="fill:#ffffff;fill-opacity:1">
		<path
   d="M465.195,12.654C464.049,5.368,457.771,0,450.395,0h-47.94v53.344c0,46.15-37.546,83.696-83.696,83.696h-43.731    c-1.432,0-2.812-0.213-4.124-0.588c-2.33,3.751-5.542,7.229-9.481,10.339c4.707,8.105,7.417,17.507,7.417,27.536v37.63    c11.474,1.018,21.947,5.574,30.318,12.566c4.738-1.334,9.735-2.048,14.894-2.048c10.697,0,20.691,3.07,29.148,8.373V214.15    c0-46.15,37.546-83.696,83.696-83.696h56.824L465.195,12.654z"
   id="path2"
   style="fill:#ffffff;fill-opacity:1" />
	</g>
</g>
<g
   id="g12"
   style="fill:#ffffff;fill-opacity:1">
	<g
   id="g10"
   style="fill:#ffffff;fill-opacity:1">
		<path
   d="M511.493,307.069l-23.062-146.652h-61.535v-0.001c-29.629,0-53.734,24.105-53.734,53.734v21.837    c26.073,4.307,46.026,26.998,46.026,54.273v34.117h77.506c4.38,0,8.54-1.917,11.386-5.245    C510.926,315.803,512.173,311.396,511.493,307.069z"
   id="path8"
   style="fill:#ffffff;fill-opacity:1" />
	</g>
</g>
<g
   id="g18"
   style="fill:#ffffff;fill-opacity:1">
	<g
   id="g16"
   style="fill:#ffffff;fill-opacity:1">
		<path
   d="M149.871,136.41c-1.359,0.405-2.795,0.63-4.286,0.63H29.065L0.532,306.914c-0.73,4.346,0.491,8.793,3.338,12.157    c2.846,3.364,7.03,5.305,11.437,5.305h77.689c0.703-8.586,3.428-16.944,8.106-24.473c7.755-12.484,19.907-21.2,34.219-24.544    c4.115-0.962,8.335-1.449,12.541-1.449c3.683,0,7.349,0.378,10.939,1.113V174.327c0-8.616,1.995-16.773,5.541-24.04    C158.077,146.368,153.116,141.653,149.871,136.41z"
   id="path14"
   style="fill:#ffffff;fill-opacity:1" />
	</g>
</g>
<g
   id="g24"
   style="fill:#ffffff;fill-opacity:1">
	<g
   id="g22"
   style="fill:#ffffff;fill-opacity:1">
		<path
   d="M64.757,0c-7.316,0-13.562,5.284-14.774,12.499l-15.886,94.579h111.487c1.49,0,2.927,0.225,4.286,0.63    c9.329-15.073,32.904-25.778,60.53-25.778c27.601,0,51.157,10.686,60.504,25.737c1.312-0.375,2.692-0.588,4.124-0.588h43.731    c29.629,0,53.734-24.105,53.734-53.734V0H64.757z"
   id="path20"
   style="fill:#ffffff;fill-opacity:1" />
	</g>
</g>
<g
   id="g30"
   style="fill:#ffffff;fill-opacity:1">
	<g
   id="g28"
   style="fill:#ffffff;fill-opacity:1">
		<path
   d="M364.168,265.202c-13.839,0-25.058,11.219-25.058,25.058v-12.765c0-13.839-11.219-25.058-25.058-25.058    s-25.058,11.219-25.058,25.058V266.76c0-13.839-11.219-25.058-25.058-25.058c-13.839,0-25.058,11.219-25.058,25.058v-92.433    c0-13.839-11.219-25.058-25.058-25.058s-25.058,11.219-25.058,25.058v149.756v65.365l-1.084-0.136l-15.439-66.077    c-3.149-13.476-16.626-21.848-30.102-18.699s-21.848,16.626-18.7,30.102l16.72,71.561C149.519,466.138,201.37,512,263.936,512    c68.561,0,124.25-55.073,125.266-123.393c0.012-0.316,0.024-0.632,0.024-0.951V290.26    C389.226,276.421,378.007,265.202,364.168,265.202z"
   id="path26"
   style="fill:#ffffff;fill-opacity:1" />
	</g>
</g>
<g
   id="g32">
</g>
<g
   id="g34">
</g>
<g
   id="g36">
</g>
<g
   id="g38">
</g>
<g
   id="g40">
</g>
<g
   id="g42">
</g>
<g
   id="g44">
</g>
<g
   id="g46">
</g>
<g
   id="g48">
</g>
<g
   id="g50">
</g>
<g
   id="g52">
</g>
<g
   id="g54">
</g>
<g
   id="g56">
</g>
<g
   id="g58">
</g>
<g
   id="g60">
</g>
</svg>