<?xml version="1.0" encoding="UTF-8" standalone="no"?>
<!-- Generator: Adobe Illustrator 19.0.0, SVG Export Plug-In . SVG Version: 6.00 Build 0)  -->

<svg
   xmlns:dc="http://purl.org/dc/elements/1.1/"
   xmlns:cc="http://creativecommons.org/ns#"
   xmlns:rdf="http://www.w3.org/1999/02/22-rdf-syntax-ns#"
   xmlns:svg="http://www.w3.org/2000/svg"
   xmlns="http://www.w3.org/2000/svg"
   xmlns:sodipodi="http://sodipodi.sourceforge.net/DTD/sodipodi-0.dtd"
   xmlns:inkscape="http://www.inkscape.org/namespaces/inkscape"
   version="1.1"
   id="Capa_1"
   x="0px"
   y="0px"
   viewBox="0 0 367.58023 223.53018"
   xml:space="preserve"
   sodipodi:docname="h_zoomXY.svg"
   width="367.58023"
   height="223.53018"
   inkscape:version="0.92.5 (2060ec1f9f, 2020-04-08)"><metadata
   id="metadata43"><rdf:RDF><cc:Work
       rdf:about=""><dc:format>image/svg+xml</dc:format><dc:type
         rdf:resource="http://purl.org/dc/dcmitype/StillImage" /><dc:title /></cc:Work></rdf:RDF></metadata><defs
   id="defs41" /><sodipodi:namedview
   pagecolor="#ffffff"
   bordercolor="#666666"
   borderopacity="1"
   objecttolerance="10"
   gridtolerance="10"
   guidetolerance="10"
   inkscape:pageopacity="0"
   inkscape:pageshadow="2"
   inkscape:window-width="1920"
   inkscape:window-height="1137"
   id="namedview39"
   showgrid="false"
   fit-margin-top="0"
   fit-margin-left="0"
   fit-margin-right="0"
   fit-margin-bottom="0"
   inkscape:zoom="0.4888026"
   inkscape:cx="171.77155"
   inkscape:cy="292.44146"
   inkscape:window-x="1912"
   inkscape:window-y="-8"
   inkscape:window-maximized="1"
   inkscape:current-layer="text831" />

<g
   id="g8"
   transform="translate(12.888373,-57.902623)">
</g>
<g
   id="g10"
   transform="translate(12.888373,-57.902623)">
</g>
<g
   id="g12"
   transform="translate(12.888373,-57.902623)">
</g>
<g
   id="g14"
   transform="translate(12.888373,-57.902623)">
</g>
<g
   id="g16"
   transform="translate(12.888373,-57.902623)">
</g>
<g
   id="g18"
   transform="translate(12.888373,-57.902623)">
</g>
<g
   id="g20"
   transform="translate(12.888373,-57.902623)">
</g>
<g
   id="g22"
   transform="translate(12.888373,-57.902623)">
</g>
<g
   id="g24"
   transform="translate(12.888373,-57.902623)">
</g>
<g
   id="g26"
   transform="translate(12.888373,-57.902623)">
</g>
<g
   id="g28"
   transform="translate(12.888373,-57.902623)">
</g>
<g
   id="g30"
   transform="translate(12.888373,-57.902623)">
</g>
<g
   id="g32"
   transform="translate(12.888373,-57.902623)">
</g>
<g
   id="g34"
   transform="translate(12.888373,-57.902623)">
</g>
<g
   id="g36"
   transform="translate(12.888373,-57.902623)">
</g>
<g
   aria-label="XY"
   transform="scale(1.0114556,0.98867415)"
   style="font-style:normal;font-weight:normal;font-size:339.6819458px;line-height:1.25;font-family:sans-serif;letter-spacing:0px;word-spacing:0px;fill:#00677f;fill-opacity:1;stroke:#00677f;stroke-width:9.36993217;stroke-miterlimit:4;stroke-dasharray:none;stroke-opacity:1"
   id="text831"><path
     d="m 174.84606,203.93688 q 2.98549,5.80511 3.81479,9.28818 0.99516,3.48307 -0.99516,5.30753 -1.99032,1.82447 -7.29786,2.32205 -5.14167,0.49758 -14.42984,0.49758 -7.79544,0 -12.27367,-0.33172 -4.47823,-0.33172 -7.13199,-0.99516 -2.48791,-0.82931 -3.64893,-2.15619 -1.16102,-1.32688 -1.99032,-3.31721 L 90.589018,137.09517 50.45082,214.55194 q -0.995162,1.99033 -2.156185,3.31721 -1.161022,1.32688 -3.814787,2.15619 -2.487905,0.66344 -7.131994,0.99516 -4.478229,0.33172 -11.941943,0.33172 -8.624737,0 -13.434687,-0.49758 -4.6440889,-0.49758 -6.3026921,-2.32205 -1.6586033,-1.82446 -0.6634413,-5.30753 0.9951619,-3.48307 4.1465081,-9.28818 L 60.568299,110.2258 12.800526,22.153967 Q 9.81504,16.182995 8.6540177,12.699929 7.6588558,9.0510015 9.4833193,7.3923982 11.473643,5.5679347 16.615313,5.236214 q 5.14167,-0.497581 14.595709,-0.497581 7.795435,0 12.273664,0.3317207 4.644089,0.3317206 7.297854,1.1610223 2.653765,0.6634413 3.648927,1.9903239 1.161023,1.3268826 2.156185,3.3172061 l 37.650293,70.98822 36.655135,-70.98822 q 0.99516,-1.9903235 1.99032,-3.3172061 1.16102,-1.3268826 3.48307,-1.9903239 2.4879,-0.8293017 6.63441,-1.1610223 4.31237,-0.3317207 11.77608,-0.3317207 8.29302,0 13.10297,0.497581 4.80995,0.3317207 6.63441,2.1561842 1.82447,1.8244636 0.8293,5.3075308 -0.8293,3.483066 -3.64892,9.454038 l -47.76778,87.574253 z"
     style="font-style:normal;font-variant:normal;font-weight:bold;font-stretch:normal;font-family:Calibri;-inkscape-font-specification:'Calibri Bold';fill:#00677f;fill-opacity:1;stroke:#00677f;stroke-width:9.36993217;stroke-miterlimit:4;stroke-dasharray:none;stroke-opacity:1"
     id="path831" /><path
     d="m 295.75825,138.91964 v 75.46644 q 0,1.65861 -1.16102,2.98549 -0.99517,1.32688 -3.48307,2.15618 -2.48791,0.82931 -6.80027,1.32689 -4.14651,0.49758 -10.44921,0.49758 -6.46855,0 -10.61506,-0.49758 -4.1465,-0.49758 -6.80027,-1.32689 -2.4879,-0.8293 -3.48307,-2.15618 -0.99516,-1.32688 -0.99516,-2.98549 V 138.91964 L 193.25657,21.988107 q -3.15135,-6.136832 -4.14651,-9.454039 -0.8293,-3.4830665 0.99516,-5.1416698 1.99032,-1.8244635 7.13199,-2.1561842 5.14167,-0.497581 14.26399,-0.497581 7.62958,0 12.10781,0.3317207 4.64409,0.3317206 7.29785,1.3268826 2.65377,0.8293016 3.81479,2.3220445 1.32688,1.4927432 2.4879,3.8147872 l 23.88389,52.743584 q 3.48307,7.629575 6.80027,16.088451 3.48307,8.458877 6.96614,17.747055 h 0.33172 q 3.15134,-8.956458 6.46855,-17.415334 3.31721,-8.458877 6.46855,-16.088452 L 311.68084,13.19751 q 0.8293,-2.653766 1.99032,-4.1465085 1.32689,-1.6586033 3.81479,-2.6537652 2.48791,-0.995162 6.80027,-1.3268826 4.31237,-0.3317207 11.44437,-0.3317207 9.45403,0 14.5957,0.497581 5.30754,0.3317207 7.132,2.1561842 1.99032,1.6586033 0.99516,5.1416698 -0.99516,3.483067 -3.98065,9.454039 z"
     style="font-style:normal;font-variant:normal;font-weight:bold;font-stretch:normal;font-family:Calibri;-inkscape-font-specification:'Calibri Bold';fill:#00677f;fill-opacity:1;stroke:#00677f;stroke-width:9.36993217;stroke-miterlimit:4;stroke-dasharray:none;stroke-opacity:1"
     id="path833" /></g>
</svg>