<svg xmlns="http://www.w3.org/2000/svg" xmlns:xlink="http://www.w3.org/1999/xlink" width="193" height="80" viewBox="0 0 154.4 64" preserveAspectRatio="xMidYMid meet"><g fill="#fff"><path d="M12.53.676c-.885.994-2.455 1.3-3.683.735a4.23 4.23 0 0 1-.827-.6L7.578.375v.752a11.86 11.86 0 0 1-.384 2.806C6.82 5.202 6.06 6.47 5.25 7.207l-.493.443.26.334.3.4c.033.033.317-.167.635-.45.768-.677.894-.735 1.186-.518.26.2.276.46.075.986-.16.384-.175 1.036-.058 1.478l.092.3.87-.384-.025-.426c-.058-.827.55-1.58 2.163-2.655 1.186-.793 1.745-.944 2.33-.627a1.28 1.28 0 0 1 .426 1.896c-.4.56-.76.827-2.263 1.745-1.787 1.094-2.5 1.62-3.282 2.464-.96 1.02-1.628 2.514-1.78 3.975-.033.292-.084.56-.117.576-.092.06-.668-.55-.852-.902-.1-.2-.134-.36-.084-.418.26-.334.134-.994-.242-1.26a1.09 1.09 0 0 0-1.102.034 1.04 1.04 0 0 0-.342.952c.025.117.175.326.326.46.225.2.46.668 1.244 2.6l.97 2.338-1.228 2.464-1.228 2.455.36.76a36.66 36.66 0 0 1 1.553 4.084c.693 2.355.835 3.7.768 7.324l-.1 2.78c-.05.167.65-.16 4.526-2.096l4.585-2.288.376.55c.2.3.985 1.17 1.72 1.93l1.353 1.378 1.988-1.937 3.574-3.516 1.57-1.58-.902-.9c-1.862-1.863-2.914-3.6-3.4-5.604-.15-.635-.175-1.07-.2-3.282l-.033-2.547.952-2.296c.768-1.854 1-2.355 1.26-2.606.26-.26.3-.35.3-.693 0-.317-.042-.434-.242-.635a.72.72 0 0 0-.618-.242c-.718 0-1.136.618-.87 1.26.1.268.1.326-.033.602-.284.55-1.127 1.227-1.52 1.227-.267 0-.45-1.386-.3-2.246.217-1.32 1.12-2.58 2.27-3.182l.56-.292-.292-.46c-.426-.668-.618-1.378-.618-2.246 0-1.2.326-2.12 1.06-2.93l.36-.4-.26-.05c-.843-.167-2.263.05-3.232.493l-.468.217-.4-.4c-.76-.743-1.203-1.93-1.136-3.048.025-.543.025-.568-.142-.5-1.595.5-3.35-.067-4.242-1.395L12.88.284l-.35.393zm.668 1.586c.76.6 1.62.936 2.756 1.052.534.05.56.067.56.276 0 .36.45 1.536.777 2.02a5.27 5.27 0 0 0 .593.735l.292.284-.543.585a15.53 15.53 0 0 0-.994 1.228c-.902 1.294-2.146 2.32-3.3 2.722l-.55.192.025.86c.025.777-.075 1.57-.276 2.08-.075.192.852.576.97.4.125-.2.334-1.236.384-1.913.05-.634.05-.643.326-.743.894-.326 2.438-1.662 3.257-2.814.626-.893 1.036-1.36 1.537-1.745.493-.376 1.3-.818 1.704-.9.2-.05.234-.042.175.092-.242.584-.326 1.144-.326 2.07 0 .852.033 1.094.217 1.612l.2.618-.735.727c-.6.593-.793.843-1.07 1.428-.5 1.06-.618 1.612-.568 2.714l.1 1.144c.067.293-.033.3-.6.034-.476-.225-1.036-.752-1.194-1.127-.075-.2-.075-.284.033-.493.175-.334.167-.643-.008-.936-.167-.284-.434-.418-.843-.418-.693.01-1.086.793-.7 1.42.134.242.134.25-.15.668a2.64 2.64 0 0 1-1.445 1.044 2.01 2.01 0 0 1-1.386-.008c-.6-.175-1.094-.526-1.4-1.002-.292-.443-.3-.493-.134-.785a.81.81 0 0 0-.159-1.052c-.234-.234-.35-.284-.635-.284a1.53 1.53 0 0 0-.509.084c-.376.2-.534.96-.276 1.328.175.242.084.45-.426 1.002-.45.484-1.044.76-1.745.827l-.493.042.058-.6c.267-2.88 1.32-4.184 5.228-6.48 1.253-.735 1.795-1.2 2.138-1.88.818-1.62-.284-3.45-2.07-3.45-.518 0-.643.034-1.42.434a10.18 10.18 0 0 0-1.62 1.052l-.768.627-.192-.217a1.93 1.93 0 0 0-.426-.326l-.225-.117.326-.693c.35-.743.618-1.637.785-2.6.075-.45.134-.593.225-.568 1.486.4 2.43.326 3.532-.275l.543-.292c.017 0 .217.142.45.325zM11.295 17.83c.576.343 1.236.493 2.054.45.635-.034.8-.075 1.345-.343a3.55 3.55 0 0 0 1.052-.76l.434-.46.4.426c.484.518.852.76 1.512.986a4.08 4.08 0 0 0 2.12.05c.217-.067.392-.092.392-.067s-.134.384-.3.785l-.3.735-13.77-.042-.284-.702-.284-.768c0-.033.192 0 .426.067.292.092.668.117 1.16.092.643-.034.818-.075 1.353-.343.418-.2.752-.45 1.036-.752l.4-.443.46.443c.25.242.6.534.793.643zm1.486 6.622l.142 4.827c.167 2.17.5 3.866 1 5.12l.225.643c-.017.017-.676.35-1.46.743l-1.445.718v-11.6h-3.3c-2.163 0-3.3-.025-3.3-.083 0-.05.45-.986 1.002-2.088l1.002-2.004h6.07l.05 3.733zM19.63 23c.05 2.54.142 3.257.6 4.635.518 1.562 1.3 2.873 2.622 4.343l.76.927c0 .042-1.228 1.278-2.722 2.74l-2.73 2.664-.894-.935c-2.046-2.13-2.798-3.9-3.182-7.54-.05-.484-.1-2.73-.134-4.994l-.042-4.1h5.67l.05 2.27zm-9.545 8.585v5.512l-1.587.793-1.603.793c-.017 0-.025-1.027-.033-2.28L6.72 33.13c-.25-1.804-.827-3.825-1.72-6.037l-.418-1.02h5.503v5.512zm-.8-27.86c-.55.384-.067 1.252.576 1.027.284-.1.434-.46.326-.76a.58.58 0 0 0-.902-.267zm6.963 19.9c-.033.025-.058.326-.058.668v.6h-1.253v1.17h1.244l.025.643c.025.6.042.65.217.676s.184.06.184.86c0 .768.008.827.167.827s.167-.06.167-.835V27.4h.2c.2 0 .2-.008.2-.668v-.668h1.336v-1.17H17.35v-1.336h-.526c-.292 0-.56.025-.585.058zM5.24 9.453c-.292.117-.55.376-.935.936l-.7.935-.367.46h.392c.55 0 1.027-.26 1.36-.735l.768-1.044.484-.643-.392.01c-.225 0-.493.042-.6.083zm34.323 6.64l-.7.125c-.643.117-1.57.5-2.213.92-1.345.868-2.23 2.08-2.722 3.725-.192.626-.225.893-.225 1.82-.008 1.236.117 1.87.576 2.864.56 1.228 1.428 2.205 2.547 2.864 2.338 1.395 5.78 1.286 7.975-.25.97-.668.87-.342.87-2.923v-2.263h-5.5v1.67h3.758v1.987l-.418.267c-.685.443-1.57.685-2.672.727-1.695.075-2.78-.317-3.84-1.386-.977-.985-1.42-2.07-1.42-3.516 0-2.17 1.253-4.034 3.157-4.693.802-.275 2.397-.275 3.198 0 .7.242 1.177.543 1.737 1.102l.434.434.6-.568c.334-.317.6-.618.626-.668s-.25-.343-.585-.652c-.676-.634-1.737-1.194-2.664-1.42-.543-.134-2.104-.242-2.497-.167zm20.794 6.548v6.597h1.754v-4.593l.067-4.585c.033 0 1.904 2.105 4.15 4.668l4.4 4.677h.3V16.2h-1.754v4.593l-.058 4.585c-.042 0-1.904-2.105-4.16-4.668l-4.4-4.677h-.317v6.597zm39.508-.86l-2.73 6.597-.36.86h1.887l1.077-2.62h5.57l.518 1.278.56 1.32c.025.016.46.025.96.016l.9-.025-5.436-13.152h-.585l-2.372 5.737zm3.725.585l1.02 2.488-2.054.025c-1.127.008-2.063.008-2.08-.01-.042-.033 1.996-4.986 2.054-4.986.025 0 .5 1.12 1.06 2.48zm35.016-5.68l-5.153 12.443c-.033.084.184.1.9.1h.952l1.07-2.672h5.545l.434 1.06.55 1.336.1.275h.92c.5 0 .927-.025.927-.067a915.92 915.92 0 0 0-2.706-6.572l-2.7-6.514-.6-.05-.267.65zm1.62 5.687l.97 2.44c0 .05-.8.083-2.054.083-1.92 0-2.054-.008-2.004-.15.46-1.253 2.02-4.9 2.07-4.836.033.06.493 1.17 1.02 2.464z"/><use xlink:href="#B"/><use xlink:href="#B" x="25.805"/><path d="M86.16 22.714v6.522H88v-3.582l2.505-.05 1.2 1.812 1.2 1.82h2.255l-.534-.777-2.22-3.3c0-.033.2-.167.45-.292.92-.484 1.67-1.395 1.996-2.438.234-.768.25-2.18.025-2.923-.468-1.578-1.562-2.6-3.3-3.065-.56-.16-.927-.184-3.03-.217l-2.405-.033v6.522zm4.76-4.66c.96.2 1.57.643 1.937 1.386.493 1.002.4 2.464-.184 3.332-.576.827-1.503 1.144-3.382 1.152l-1.253.01-.025-2.923.025-3.04c.042-.1.26-.1 1.236-.067.65.025 1.395.092 1.645.15zm19.543 4.67v6.514h7.6v-1.67H112.3V16.2h-1.837v6.514zm10.02-.001v6.514h1.837V16.2h-1.837v6.514zm4.26-5.68v.835h3.84v11.357h1.837V17.88h3.84V16.2h-9.52v.835zm19.3.001v.835l1.946.017 1.937.025.025 5.654.017 5.662h1.837V17.88h3.925V16.2h-9.687v.835zm-93.18 18.013a1342.77 1342.77 0 0 0-5.361 13.003c0 .033.418.04.935.033l.935-.025 1.036-2.6h5.57l1.077 2.62h1.887l-.1-.276-5.345-12.92H51.2c-.184 0-.3.05-.35.142zm.426 3.8c.017.06.476 1.178 1 2.48l.97 2.396c0 .017-.927.034-2.054.034-2.054 0-2.054 0-2.013-.175.092-.35 1.937-4.835 1.988-4.835.033 0 .075.05.1.1zm29.37 2.647V48.1h1.754l.017-4.602.025-4.6 4.125 4.693 4.4 4.685h.284V35.082H89.5l-.017 4.593-.025 4.585-4.092-4.652-4.4-4.677-.3-.025v6.597zm18.915-6.506c-2.747.434-4.777 2.297-5.445 4.994-.2.835-.184 2.53.05 3.4.518 1.92 1.745 3.424 3.474 4.225a6.63 6.63 0 0 0 2.6.643c2.08.117 4-.626 5.32-2.054.752-.8.752-.743-.075-1.336l-.727-.5-.2.268a4.99 4.99 0 0 1-2.731 1.787c-.8.192-2.138.125-2.873-.15-1.537-.56-2.622-1.846-2.973-3.5-.175-.827-.117-2.087.134-2.84.785-2.355 3.082-3.658 5.528-3.14.877.192 1.453.5 2.18 1.236l.65.643 1.4-1-.16-.225c-.092-.125-.443-.484-.777-.8a6.27 6.27 0 0 0-2.606-1.453c-.76-.192-2.08-.267-2.764-.167zm18.756.102L112.993 48c-.033.084.184.1.902.1h.952l.534-1.336.543-1.336h5.545l.534 1.336.526 1.336h.944l.935-.034c0-.016-1.22-2.973-2.706-6.572l-2.706-6.547-.3-.025c-.25-.025-.317.01-.376.167zm1.445 6.163l.97 2.447c0 .034-.92.06-2.046.06s-2.046-.025-2.046-.06c0-.042 1.177-2.94 1.896-4.693.067-.15.15-.25.192-.2.033.042.5 1.144 1.036 2.455zm6.9.25V48.1h1.754l.017-4.585.025-4.585 4.092 4.66 4.4 4.668.3.008V35.082H135.5l-.017 4.6-.025 4.6-4.134-4.693-4.4-4.693h-.276v6.597zm15.523 0l-2.73 6.605 1.92-.05 1.036-2.6h5.578l1.077 2.62h1.887l-.36-.86-5.102-12.334h-.585l-2.722 6.597zm4.084-.276l.985 2.505c-.017.017-.944.017-2.07.008l-2.054-.025 1-2.5 1.06-2.48c.025 0 .5 1.12 1.07 2.48zm-111.386-6.12a1115.88 1115.88 0 0 0 2.706 6.572l2.706 6.547h.626l2.664-6.43 2.706-6.58c.042-.134-.042-.142-.944-.142h-.985l-1.846 4.602-1.92 4.576c-.042-.017-.902-2.08-1.912-4.6l-1.837-4.577h-.977l-.985.034zm24.218 6.48V48.1h7.6v-1.67l-2.856-.017-2.864-.025-.042-11.316h-1.837v6.514zm10.02 0V48.1h8.35v-1.67H70.96v-2.923h5.595v-1.67H70.96v-5h6.263v-1.754h-8.1v6.514zm39.752 0V48.1h1.837V35.082h-1.837v6.514zm-96.078-2.004l-1.002 1.002L25.2 53.997l-.217-.785a19.54 19.54 0 0 0-3.549-6.981c-.6-.752-7.4-7.64-7.54-7.64-.05 0-.543.45-1.094 1.002zm-3.893 3.882L7.87 44.52l8.685 8.685 8.702 8.66c.075-.084.284-1.795.326-2.7l.05-1.086L9.958 42.43l-1.044 1.044zm-3.9 3.908l-1.02 1.02 15.66 15.657h.626c.693 0 2.814-.225 2.98-.318.067-.04-2.84-3.006-8.56-8.727l-8.66-8.66-1.027 1.027zm-3.882 3.883l-.977 1.07c0 .05 1.603 1.68 3.574 3.633 4.368 4.334 5.17 4.986 7.74 6.22 1.17.56 2.146.927 3.34 1.253l.752.2-6.68-6.68-6.723-6.68c-.025 0-.484.443-1.027.986z"/></g><defs><path id="B" d="M48.832 22.723v6.514h8.435v-1.67l-3.274-.017-3.282-.025-.025-1.445-.017-1.436h5.595v-1.67l-2.773-.016-2.78-.025v-5.01l3.157-.025 3.148-.017v-1.67h-8.184v6.514z"/></defs></svg>