<svg width="24" height="24" viewBox="0 0 24 24" fill="none" xmlns="http://www.w3.org/2000/svg">
<mask id="mask0_846_2947" style="mask-type:alpha" maskUnits="userSpaceOnUse" x="0" y="0" width="24" height="24">
<path d="M24 24L24 0L0 2.09815e-06L2.09815e-06 24L24 24Z" fill="#D9D9D9"/>
</mask>
<g mask="url(#mask0_846_2947)">
<path d="M12 9.1849L4.4672 16.7176C4.2686 16.9163 4.0347 17.0131 3.7655 17.0081C3.4962 17.003 3.2622 16.901 3.0635 16.7024C2.8648 16.5035 2.7655 16.2695 2.7655 16.0004C2.7655 15.7312 2.8648 15.4972 3.0635 15.2984L10.7192 7.6274C10.9001 7.4465 11.1027 7.3125 11.327 7.2254C11.5513 7.1382 11.7757 7.0946 12 7.0946C12.2243 7.0946 12.4487 7.1382 12.673 7.2254C12.8973 7.3125 13.0999 7.4465 13.2807 7.6274L20.952 15.2984C21.1506 15.4972 21.2474 15.7338 21.2422 16.0081C21.2371 16.2825 21.1351 16.519 20.9365 16.7176C20.7378 16.9163 20.5038 17.0156 20.2345 17.0156C19.9653 17.0156 19.7314 16.9163 19.5327 16.7176L12 9.1849Z" fill="white"/>
</g>
</svg>
