<svg width="24" height="24" viewBox="0 0 24 24" fill="none" xmlns="http://www.w3.org/2000/svg">
<mask id="mask0_844_2944" style="mask-type:alpha" maskUnits="userSpaceOnUse" x="0" y="0" width="24" height="24">
<rect y="24" width="24" height="24" transform="rotate(-90 0 24)" fill="#D9D9D9"/>
</mask>
<g mask="url(#mask0_844_2944)">
<path d="M12 14.815L19.5328 7.28227C19.7314 7.0836 19.9653 6.98677 20.2345 6.99177C20.5038 6.99694 20.7378 7.09885 20.9365 7.29752C21.1352 7.49635 21.2345 7.73035 21.2345 7.99952C21.2345 8.26869 21.1352 8.50269 20.9365 8.70152L13.2808 16.3725C13.0999 16.5534 12.8973 16.6874 12.673 16.7745C12.4487 16.8617 12.2243 16.9053 12 16.9053C11.7757 16.9053 11.5513 16.8617 11.327 16.7745C11.1027 16.6874 10.9001 16.5534 10.7193 16.3725L3.04801 8.70152C2.84935 8.50269 2.7526 8.26611 2.75776 7.99177C2.76293 7.71744 2.86485 7.48094 3.06351 7.28227C3.26218 7.08361 3.49618 6.98427 3.76551 6.98427C4.03468 6.98427 4.2686 7.08361 4.46726 7.28227L12 14.815Z" fill="white"/>
</g>
</svg>
