<?xml version="1.0" encoding="UTF-8" standalone="no"?>
<svg
   height="575.33307"
   viewBox="-5 0 421.84555 431.50007"
   width="562.46039"
   version="1.1"
   id="svg1"
   sodipodi:docname="solr_filtro_relleno.svg"
   inkscape:version="1.4 (86a8ad7, 2024-10-11)"
   xmlns:inkscape="http://www.inkscape.org/namespaces/inkscape"
   xmlns:sodipodi="http://sodipodi.sourceforge.net/DTD/sodipodi-0.dtd"
   xmlns="http://www.w3.org/2000/svg"
   xmlns:svg="http://www.w3.org/2000/svg">
  <defs
     id="defs1" />
  <sodipodi:namedview
     id="namedview1"
     pagecolor="#ffffff"
     bordercolor="#000000"
     borderopacity="0.25"
     inkscape:showpageshadow="2"
     inkscape:pageopacity="0.0"
     inkscape:pagecheckerboard="0"
     inkscape:deskcolor="#d1d1d1"
     inkscape:zoom="1.1912244"
     inkscape:cx="107.45246"
     inkscape:cy="239.66936"
     inkscape:window-width="2560"
     inkscape:window-height="1009"
     inkscape:window-x="-8"
     inkscape:window-y="-8"
     inkscape:window-maximized="1"
     inkscape:current-layer="svg1" />
  <path
     d="M 381.55644,18.750037 H 30.296431 a 16.5,16.5 0 0 0 -14.712,8.961 c -2.87,5.586 -2.367,12.312 1.3,17.414 L 145.57244,226.41003 c 0.043,0.063 0.1,0.12 0.133,0.184 a 36.75,36.75 0 0 1 7.219,21.816 v 147.8 a 16.45,16.45 0 0 0 16.429,16.54 16.94,16.94 0 0 0 6.48,-1.301 l 72.313,-27.57 c 6.477,-1.98 10.777,-8.094 10.777,-15.453 v -120.016 c 0.012,-7.855 2.543,-15.504 7.215,-21.816 0.043,-0.062 0.1,-0.12 0.133,-0.184 l 128.69,-181.289993 c 3.668,-5.098 4.172,-11.82 1.3,-17.406 -2.825,-5.514 -8.509,-8.976 -14.705,-8.964 z m 0,0"
     fill="#00677f"
     id="path1"
     style="fill:none;fill-opacity:1;stroke:#00677f;stroke-width:37.50002317;stroke-dasharray:none;stroke-opacity:1" />
  <circle
     style="fill:#ff0000;fill-opacity:1;stroke:none;stroke-width:143.125;stroke-dasharray:none;stroke-opacity:1"
     id="path2"
     cx="344.64914"
     cy="72.108078"
     r="72.089722" />
</svg>
