<svg xmlns="http://www.w3.org/2000/svg" viewBox="0 0 512 512" fill="#00677f" xmlns:v="https://vecta.io/nano"><path d="M503.467 128H358.4a8.54 8.54 0 0 0-8.533 8.533V230.4a8.54 8.54 0 0 0 8.533 8.533h145.067A8.54 8.54 0 0 0 512 230.4v-93.867a8.54 8.54 0 0 0-8.533-8.533zm-179.2 0H187.733a8.54 8.54 0 0 0-8.533 8.533V230.4a8.54 8.54 0 0 0 8.533 8.533h136.533a8.54 8.54 0 0 0 8.533-8.533v-93.867c.001-4.7-3.822-8.533-8.532-8.533zM153.6 128H8.533A8.54 8.54 0 0 0 0 136.533V230.4a8.54 8.54 0 0 0 8.533 8.533H153.6a8.54 8.54 0 0 0 8.533-8.533v-93.867A8.54 8.54 0 0 0 153.6 128zm170.667 128H187.733a8.54 8.54 0 0 0-8.533 8.533V358.4a8.54 8.54 0 0 0 8.533 8.533h136.533a8.54 8.54 0 0 0 8.533-8.533v-93.867c.001-4.7-3.822-8.533-8.532-8.533z"/><path d="M153.6 256H8.533A8.54 8.54 0 0 0 0 264.533V358.4a8.54 8.54 0 0 0 8.533 8.533H153.6a8.54 8.54 0 0 0 8.533-8.533v-93.867A8.54 8.54 0 0 0 153.6 256zm349.867 0H358.4a8.54 8.54 0 0 0-8.533 8.533V358.4a8.54 8.54 0 0 0 8.533 8.533h145.067A8.54 8.54 0 0 0 512 358.4v-93.867a8.54 8.54 0 0 0-8.533-8.533zm0 128H358.4a8.54 8.54 0 0 0-8.533 8.533v110.933a8.54 8.54 0 0 0 8.533 8.533h145.067a8.54 8.54 0 0 0 8.533-8.533V392.533a8.54 8.54 0 0 0-8.533-8.533zm-179.2 0H187.733a8.54 8.54 0 0 0-8.533 8.533v110.933a8.54 8.54 0 0 0 8.533 8.533h136.533a8.54 8.54 0 0 0 8.533-8.533V392.533c.001-4.7-3.822-8.533-8.532-8.533z"/><path d="M503.467 0H8.533A8.54 8.54 0 0 0 0 8.533V102.4a8.54 8.54 0 0 0 8.533 8.533h494.933a8.54 8.54 0 0 0 8.533-8.533V8.533C512 3.823 508.177 0 503.467 0zM153.6 384H8.533A8.54 8.54 0 0 0 0 392.533v110.933A8.54 8.54 0 0 0 8.533 512H153.6a8.54 8.54 0 0 0 8.533-8.533V392.533A8.54 8.54 0 0 0 153.6 384z"/></svg>